<?xml version="1.0" standalone="no"?>
<!DOCTYPE svg PUBLIC "-//W3C//DTD SVG 20010904//EN"
 "http://www.w3.org/TR/2001/REC-SVG-20010904/DTD/svg10.dtd">
<svg version="1.0" xmlns="http://www.w3.org/2000/svg"
 width="3534.000000pt" height="680.000000pt" viewBox="0 0 3534.000000 680.000000"
 preserveAspectRatio="xMidYMid meet">

<g transform="translate(0.000000,680.000000) scale(0.100000,-0.100000)"
fill="#246fe0" stroke="none">
<path d="M3160 6783 c-1170 -87 -2186 -741 -2749 -1768 -208 -380 -339 -804
-393 -1270 -18 -158 -15 -578 5 -741 144 -1156 827 -2128 1855 -2642 496 -248
957 -356 1522 -356 263 0 415 14 651 60 1244 240 2257 1171 2608 2394 46 158
83 341 108 526 24 181 24 637 0 819 -55 409 -152 735 -327 1090 -174 353 -367
622 -645 901 -273 274 -545 468 -900 644 -396 196 -781 302 -1230 340 -111 9
-400 11 -505 3z m-794 -1401 c1 -223 12 -332 55 -545 72 -358 225 -721 440
-1046 199 -303 394 -519 697 -775 50 -43 92 -80 92 -82 0 -1 -35 -22 -77 -45
-43 -23 -98 -56 -123 -73 l-44 -30 -104 55 c-446 232 -871 581 -1187 971 -186
230 -387 588 -493 878 -75 204 -76 182 14 291 137 164 317 332 485 451 67 48
228 148 238 148 3 0 6 -89 7 -198z m2185 -279 c228 -152 497 -398 665 -608
325 -407 476 -840 420 -1203 -56 -367 -302 -729 -675 -993 -165 -116 -323
-197 -686 -349 -174 -73 -314 -165 -443 -291 -125 -123 -210 -264 -248 -409
-22 -84 -23 -253 -1 -335 9 -32 15 -61 13 -62 -6 -6 -109 37 -175 73 -325 178
-481 505 -396 829 9 33 40 111 70 172 127 267 282 435 665 723 387 291 550
468 679 740 57 122 101 250 137 405 35 151 43 405 20 585 -35 264 -114 537
-215 744 l-56 115 64 -35 c36 -20 108 -65 162 -101z m-3176 -648 c229 -562
707 -1093 1310 -1453 129 -77 404 -215 523 -263 l83 -33 -48 -43 c-26 -23 -56
-42 -66 -43 -26 0 -153 26 -291 61 -700 176 -1322 556 -1742 1068 l-61 73 23
97 c26 113 74 265 116 371 49 124 111 251 118 243 3 -4 19 -39 35 -78z m0
-1278 c348 -271 767 -472 1215 -582 118 -29 227 -49 438 -81 40 -6 40 -13 1
-50 l-30 -29 -237 1 c-240 0 -344 9 -552 45 -238 41 -521 129 -731 226 l-97
45 -55 116 c-88 184 -187 450 -187 500 0 8 33 -16 73 -53 39 -38 113 -99 162
-138z m440 -798 c55 -16 161 -41 235 -55 234 -45 598 -44 828 2 41 8 40 -3 -1
-48 -66 -73 -338 -136 -618 -145 -171 -6 -417 9 -466 28 -20 7 -113 122 -212
260 l-41 57 88 -34 c48 -19 132 -48 187 -65z m955 -274 c0 -3 -9 -23 -19 -43
-56 -110 -371 -232 -599 -232 -54 0 -55 0 -131 75 l-76 75 157 0 c216 0 449
42 598 109 46 20 70 25 70 16z"/>
<path d="M8949 6776 c-376 -55 -697 -218 -955 -489 -300 -313 -450 -747 -413
-1194 22 -276 101 -512 247 -738 377 -585 1135 -846 1807 -624 201 66 435 203
571 333 l74 71 -139 245 c-77 134 -143 246 -148 247 -4 2 -19 -13 -32 -33 -44
-63 -206 -208 -291 -258 -255 -151 -569 -186 -844 -95 -329 109 -570 362 -673
704 -25 84 -27 102 -27 280 0 179 2 195 27 280 56 182 132 311 256 436 312
311 795 395 1185 205 113 -55 198 -119 300 -226 59 -62 81 -79 87 -69 5 8 68
120 140 249 l132 234 -63 56 c-207 184 -461 314 -723 371 -122 26 -384 34
-518 15z"/>
<path d="M10610 5265 l0 -1525 300 0 300 0 0 615 0 615 336 -2 336 -3 347
-610 347 -610 318 -3 318 -2 -20 32 c-24 40 -874 1525 -890 1554 -9 17 44 115
404 740 l414 719 -312 3 c-171 1 -315 -1 -319 -5 -4 -5 -173 -298 -375 -652
l-369 -644 -265 7 c-146 4 -266 9 -268 10 -1 2 -6 292 -9 645 l-6 641 -294 0
-293 0 0 -1525z"/>
<path d="M14685 6774 c-546 -44 -945 -201 -1226 -483 -202 -202 -316 -426
-370 -727 -17 -95 -21 -159 -21 -314 0 -227 20 -365 78 -539 156 -469 560
-796 1134 -919 239 -52 310 -57 755 -57 385 1 432 3 563 23 768 121 1214 501
1345 1147 30 151 32 516 3 670 -123 661 -610 1067 -1416 1181 -83 11 -209 17
-455 19 -187 1 -362 1 -390 -1z m65 -1525 l0 -1012 -67 7 c-245 25 -506 115
-669 231 -76 54 -188 174 -233 248 -82 139 -120 280 -128 478 -23 584 276 928
902 1038 61 11 129 20 153 20 l42 1 0 -1011z m795 980 c423 -86 697 -292 807
-609 76 -218 75 -510 -1 -734 -76 -222 -246 -406 -473 -510 -143 -66 -423
-136 -544 -136 l-34 0 0 1011 0 1012 72 -7 c40 -4 118 -16 173 -27z"/>
<path d="M16810 6777 c0 -2 266 -494 590 -1092 325 -599 589 -1094 587 -1099
-3 -6 -33 -49 -67 -95 -149 -201 -269 -278 -446 -289 -44 -2 -105 1 -134 7
-29 6 -54 10 -56 8 -3 -3 250 -470 263 -486 8 -11 233 19 298 39 219 68 393
209 549 444 54 83 1406 2540 1406 2557 0 5 -126 9 -303 9 l-304 0 -218 -412
c-322 -609 -659 -1218 -674 -1218 -3 0 -204 367 -446 815 l-439 815 -303 0
c-167 0 -303 -1 -303 -3z"/>
<path d="M20205 3359 c-880 -1596 -1610 -2921 -1623 -2946 l-23 -44 87 3 87 3
1618 2935 c891 1614 1619 2938 1619 2942 0 5 -37 8 -82 8 l-83 0 -1600 -2901z"/>
<path d="M26192 4219 c-296 -43 -544 -274 -593 -554 -15 -85 -6 -282 15 -348
75 -234 255 -402 502 -468 112 -31 316 -31 429 0 321 87 525 347 525 671 0
115 -11 179 -44 261 -129 321 -455 492 -834 438z m288 -283 c118 -43 214 -146
251 -269 28 -90 23 -234 -10 -320 -47 -119 -173 -221 -309 -247 -271 -54 -503
143 -503 425 0 212 123 375 321 425 50 13 197 5 250 -14z"/>
<path d="M24230 3525 l0 -675 155 0 155 0 0 270 0 271 112 -3 112 -3 172 -265
172 -265 182 -3 c125 -2 179 1 175 8 -4 6 -105 162 -226 347 -121 185 -218
342 -216 347 3 6 100 151 216 323 116 171 211 314 211 317 0 3 -74 6 -164 6
l-164 0 -173 -269 -174 -270 -117 0 -118 -1 0 270 0 270 -155 0 -155 0 0 -675z"/>
<path d="M27496 4008 c-18 -523 -34 -689 -78 -789 -34 -81 -100 -123 -175
-112 l-31 5 -7 -109 c-3 -59 -7 -119 -8 -132 -3 -32 31 -42 151 -43 84 -1 98
2 157 31 126 63 195 202 230 469 12 92 34 467 35 595 l0 27 233 -2 232 -3 3
-547 2 -548 155 0 155 0 0 675 0 675 -524 0 -524 0 -6 -192z"/>
<path d="M29066 4003 c-22 -634 -44 -783 -128 -860 -28 -26 -83 -42 -125 -36
l-31 5 -7 -109 c-3 -59 -7 -119 -8 -132 -3 -32 31 -42 151 -43 84 -1 98 2 157
31 126 63 195 202 230 469 12 92 34 467 35 595 l0 27 233 -2 232 -3 3 -547 2
-548 155 0 155 0 0 675 0 675 -524 0 -524 0 -6 -197z"/>
<path d="M30480 3525 l0 -675 525 0 525 0 0 125 0 125 -370 0 -370 0 0 155 0
155 315 0 315 0 0 125 0 125 -315 0 -315 0 0 145 0 145 355 0 355 0 0 125 0
125 -510 0 -510 0 0 -675z"/>
<path d="M31966 4138 c-3 -35 -8 -148 -11 -253 -18 -586 -84 -785 -260 -785
l-35 0 0 -270 0 -270 145 0 144 0 3 143 3 142 478 3 477 2 0 -145 0 -145 145
0 145 0 0 270 0 270 -95 0 -95 0 0 550 0 550 -519 0 -519 0 -6 -62z m734 -613
l0 -425 -301 0 c-165 0 -299 3 -297 8 2 4 15 30 30 58 54 103 85 286 94 564 3
96 7 185 10 198 l4 22 230 0 230 0 0 -425z"/>
<path d="M33320 4196 c0 -2 79 -138 176 -302 97 -165 181 -308 186 -320 8 -18
-19 -72 -172 -340 -100 -175 -191 -334 -202 -351 l-20 -33 184 0 184 0 150
270 149 269 103 1 102 0 0 -270 0 -270 155 0 155 0 0 270 0 270 98 0 97 0 150
-270 150 -270 183 0 c171 0 182 1 173 18 -5 9 -95 167 -200 351 -105 183 -191
335 -191 337 0 1 83 145 185 318 102 173 185 318 185 321 0 3 -74 5 -164 5
l-164 0 -149 -267 -150 -268 -101 -3 -102 -3 0 271 0 270 -155 0 -155 0 0
-270 0 -271 -107 3 -106 3 -147 265 -147 265 -167 3 c-91 1 -166 1 -166 -2z"/>
<path d="M17960 2980 c0 -12 7 -34 15 -50 27 -53 168 -76 238 -38 22 12 57 67
57 91 0 27 -76 24 -85 -3 -10 -32 -50 -53 -87 -46 -39 8 -58 23 -58 47 0 15
-8 19 -40 19 -34 0 -40 -3 -40 -20z"/>
<path d="M15373 2835 c-65 -14 -106 -32 -101 -43 2 -4 10 -24 18 -45 12 -31
18 -37 35 -32 121 39 181 43 240 14 40 -19 59 -59 44 -92 -16 -36 -53 -49
-151 -55 l-88 -4 0 -44 0 -44 104 0 c89 0 107 -3 130 -21 35 -27 36 -86 4
-117 -54 -50 -169 -58 -256 -17 -30 14 -57 25 -61 25 -5 0 -15 -18 -24 -41
l-16 -41 53 -24 c150 -68 319 -52 406 40 32 34 35 42 35 96 0 67 -21 104 -73
129 -38 19 -39 24 -9 40 37 20 67 73 67 120 0 82 -45 129 -146 156 -70 18
-128 18 -211 0z"/>
<path d="M8061 2810 c-66 -31 -113 -72 -151 -136 -33 -55 -35 -63 -35 -149 0
-81 3 -96 32 -150 39 -75 72 -107 146 -141 54 -24 67 -26 155 -22 83 3 104 8
149 32 29 16 59 36 68 46 13 15 11 20 -23 53 l-37 36 -44 -29 c-111 -75 -258
-43 -319 70 -20 38 -23 56 -20 112 4 82 39 139 108 176 65 34 158 29 228 -15
l50 -31 36 37 36 37 -22 20 c-63 57 -98 69 -208 72 -89 2 -112 0 -149 -18z"/>
<path d="M8540 2525 l0 -305 230 0 230 0 0 45 0 45 -167 2 -168 3 -3 83 -3 82
151 0 150 0 0 50 0 50 -150 0 -150 0 0 80 0 80 165 0 165 0 0 45 0 45 -225 0
-225 0 0 -305z"/>
<path d="M9130 2524 l0 -305 203 3 c182 3 205 5 237 24 55 32 80 77 80 143 0
67 -24 112 -69 131 -34 14 -39 25 -16 33 25 10 55 83 55 135 0 60 -25 96 -84
123 -35 16 -68 19 -223 19 l-183 0 0 -306z m349 190 c40 -34 42 -80 5 -115
-24 -22 -33 -24 -132 -24 l-107 0 -3 83 -3 82 105 0 c98 0 106 -2 135 -26z m5
-244 c61 -23 73 -112 18 -148 -21 -14 -49 -17 -142 -17 l-115 0 -3 88 -3 87
110 0 c60 0 121 -4 135 -10z"/>
<path d="M9780 2525 l0 -305 230 0 230 0 0 45 0 45 -170 0 -170 0 0 85 0 85
145 0 145 0 0 50 0 50 -145 0 -145 0 0 80 0 80 165 0 165 0 0 45 0 45 -225 0
-225 0 0 -305z"/>
<path d="M10370 2525 l0 -305 60 0 60 0 0 90 0 90 113 0 c104 0 118 2 168 28
160 81 157 303 -5 381 -38 19 -61 21 -219 21 l-177 0 0 -305z m334 191 c46
-19 66 -52 66 -106 0 -89 -49 -120 -190 -120 l-90 0 0 120 0 120 90 0 c55 0
104 -6 124 -14z"/>
<path d="M11163 2817 c-87 -33 -170 -123 -194 -212 -18 -66 -6 -162 29 -230
58 -114 130 -158 269 -163 120 -5 174 12 241 77 70 67 94 119 100 211 3 61 0
86 -19 135 -29 77 -104 155 -173 178 -58 20 -204 22 -253 4z m212 -106 c204
-92 134 -400 -90 -401 -135 0 -229 119 -204 257 24 127 173 200 294 144z"/>
<path d="M12080 2525 l0 -305 55 0 54 0 3 128 3 127 55 0 55 0 45 -61 c25 -34
66 -91 92 -128 l48 -66 123 0 122 0 26 68 26 67 154 3 154 2 32 -70 31 -70 61
0 c34 0 61 1 61 3 0 1 -60 138 -134 302 l-134 300 -63 0 -63 0 -132 -295 c-73
-162 -135 -294 -139 -293 -4 1 -54 69 -111 152 l-104 150 100 140 c55 77 100
142 100 145 0 3 -26 6 -59 6 l-58 0 -87 -125 -87 -125 -59 0 -60 0 0 125 0
125 -55 0 -55 0 0 -305z m920 57 c29 -67 50 -125 48 -128 -3 -2 -53 -3 -111
-2 l-106 3 45 105 c65 153 64 153 68 149 2 -2 27 -59 56 -127z"/>
<path d="M13370 2525 l0 -305 183 0 c101 0 200 5 222 11 84 24 137 116 115
201 -12 42 -61 98 -86 98 -19 0 -18 19 1 26 53 21 75 156 33 209 -43 55 -84
65 -285 65 l-183 0 0 -305z m336 196 c58 -35 52 -110 -11 -136 -21 -10 -68
-15 -125 -15 l-90 0 0 85 0 85 98 0 c78 0 103 -4 128 -19z m50 -274 c45 -52
24 -118 -44 -137 -20 -5 -79 -10 -129 -10 l-93 0 0 91 0 91 121 -4 c118 -3
121 -4 145 -31z"/>
<path d="M14020 2525 l0 -305 55 0 54 0 3 128 3 127 55 0 54 0 91 -125 91
-125 124 0 124 0 26 65 26 65 153 3 152 3 32 -71 32 -70 62 0 62 0 -18 43
c-20 46 -221 495 -241 540 -12 25 -17 27 -74 27 l-61 0 -123 -278 c-68 -152
-129 -287 -136 -300 -12 -23 -17 -17 -120 132 l-107 156 100 140 c56 77 101
142 101 145 0 3 -27 5 -59 5 l-60 0 -87 -125 -87 -125 -58 0 -59 0 0 125 0
125 -55 0 -55 0 0 -305z m965 -56 c6 -18 -1 -19 -104 -19 -61 0 -111 2 -111 4
0 6 99 236 106 248 5 8 90 -173 109 -233z"/>
<path d="M16048 2820 c-71 -21 -156 -100 -188 -174 -29 -66 -34 -125 -16 -196
22 -85 62 -148 120 -187 60 -41 103 -53 192 -53 92 0 161 21 210 65 l39 35
-39 35 c-35 31 -41 33 -55 21 -31 -28 -107 -56 -154 -56 -82 0 -157 44 -195
115 -21 40 -21 150 1 191 22 42 77 89 123 104 59 20 149 7 199 -28 l42 -29 39
32 39 33 -25 27 c-14 15 -47 38 -75 51 -42 20 -65 24 -140 23 -49 0 -102 -4
-117 -9z"/>
<path d="M16510 2525 l0 -305 55 0 54 0 3 128 3 127 55 0 54 0 91 -127 90
-127 63 -1 c34 0 62 3 62 6 0 3 -44 70 -98 148 -54 77 -102 147 -106 154 -5 8
30 64 94 155 l101 142 -52 3 c-28 2 -57 1 -63 -1 -7 -3 -50 -59 -96 -126 l-84
-121 -58 0 -58 0 0 125 0 125 -55 0 -55 0 0 -305z"/>
<path d="M17120 2525 l0 -305 58 1 57 0 160 212 160 212 3 -212 2 -213 60 0
60 0 0 305 0 305 -59 0 -59 0 -159 -209 c-87 -116 -161 -210 -165 -210 -5 -1
-8 94 -8 209 l0 210 -55 0 -55 0 0 -305z"/>
<path d="M17840 2525 l0 -305 58 0 57 0 160 211 160 211 3 -211 2 -211 60 0
60 0 0 305 0 305 -58 0 -57 0 -160 -210 -160 -210 -3 210 -2 210 -60 0 -60 0
0 -305z"/>
<path d="M11710 2465 l0 -45 120 0 120 0 0 45 0 45 -120 0 -120 0 0 -45z"/>
<path d="M14947 1888 c7 -41 29 -67 70 -84 38 -17 133 -18 165 -3 29 13 68 68
68 97 0 19 -6 22 -40 22 -32 0 -40 -4 -40 -18 0 -28 -32 -52 -69 -52 -43 0
-67 14 -75 45 -5 21 -12 25 -46 25 -39 0 -39 0 -33 -32z"/>
<path d="M8190 1746 c0 -33 0 -33 -58 -40 -118 -13 -228 -89 -251 -173 -19
-66 -13 -153 13 -208 37 -80 106 -124 229 -145 65 -12 67 -13 67 -41 0 -28 1
-29 55 -29 54 0 55 0 55 30 0 26 4 30 38 35 158 25 248 90 272 198 26 116 -9
214 -99 275 -46 31 -141 62 -193 62 -25 0 -28 3 -28 35 l0 35 -50 0 -50 0 0
-34z m10 -302 c0 -137 -3 -174 -13 -174 -31 0 -125 34 -154 56 -38 29 -57 81
-50 141 6 53 30 90 77 118 37 21 120 45 133 38 4 -2 7 -83 7 -179z m219 143
c62 -31 95 -92 88 -164 -3 -30 -14 -65 -26 -82 -23 -31 -97 -67 -151 -73 l-35
-3 -3 179 -2 179 42 -7 c24 -4 63 -17 87 -29z"/>
<path d="M8740 1440 l0 -310 230 0 230 0 0 50 0 50 -172 2 -173 3 0 80 0 80
148 3 147 3 0 44 0 44 -147 3 -148 3 -3 78 -3 77 171 0 170 0 0 50 0 50 -225
0 -225 0 0 -310z"/>
<path d="M10040 1440 l0 -310 235 0 235 0 0 50 0 50 -175 0 -175 0 0 85 0 85
145 0 145 0 0 45 0 45 -145 0 -145 0 0 80 0 80 165 0 165 0 0 50 0 50 -225 0
-225 0 0 -310z"/>
<path d="M10630 1441 l0 -311 55 0 55 0 0 90 0 90 84 0 c162 0 247 33 293 115
25 44 31 142 12 192 -14 38 -56 80 -104 106 -36 20 -59 22 -217 25 l-178 4 0
-311z m337 192 c65 -30 81 -126 32 -179 -30 -32 -78 -44 -176 -44 l-83 0 0
120 0 120 96 0 c69 0 106 -5 131 -17z"/>
<path d="M11411 1733 c-23 -44 -261 -585 -261 -594 0 -6 24 -9 56 -7 l56 3 28
70 28 70 151 3 151 3 35 -76 34 -75 62 0 c45 0 60 3 56 13 -2 6 -65 146 -138
310 l-133 297 -57 0 c-45 0 -60 -4 -68 -17z m127 -243 l49 -115 -105 -3 c-57
-1 -106 -1 -109 1 -2 2 20 59 48 126 28 68 55 119 60 114 4 -4 30 -60 57 -123z"/>
<path d="M12600 1439 l0 -311 183 4 c182 4 183 4 237 34 71 40 92 80 92 173 0
96 -23 136 -102 177 -27 14 -65 19 -162 22 l-128 4 0 104 0 104 -60 0 -60 0 0
-311z m371 -17 c25 -22 32 -37 33 -69 2 -91 -45 -124 -186 -131 l-98 -5 0 117
0 116 110 0 c106 0 111 -1 141 -28z"/>
<path d="M13220 1440 l0 -310 60 0 60 0 0 135 0 136 158 -3 157 -3 3 -132 3
-133 54 0 55 0 0 310 0 310 -55 0 -54 0 -3 -127 -3 -128 -157 -3 -158 -3 0
131 0 130 -60 0 -60 0 0 -310z"/>
<path d="M13950 1439 l0 -311 183 4 c178 4 183 4 235 33 71 39 92 79 92 178 0
89 -21 129 -90 167 -39 21 -61 25 -175 30 l-130 5 -3 103 -3 102 -54 0 -55 0
0 -311z m353 -7 c56 -32 62 -118 13 -167 -32 -32 -92 -46 -179 -43 l-72 3 -3
104 c-1 58 0 111 3 119 8 22 195 10 238 -16z"/>
<path d="M14550 1440 l0 -310 55 0 55 0 0 310 0 310 -55 0 -55 0 0 -310z"/>
<path d="M14840 1440 l0 -310 53 0 52 1 165 217 165 217 3 -217 2 -218 55 0
55 0 0 310 0 310 -55 0 -54 0 -163 -215 -163 -215 -3 215 -2 215 -55 0 -55 0
0 -310z"/>
<path d="M9390 1648 c-1 -110 -15 -274 -30 -327 -12 -47 -55 -91 -86 -91 -24
0 -24 -1 -24 -110 l0 -110 55 0 55 0 0 60 0 60 235 0 235 0 0 -60 0 -60 55 0
55 0 0 105 0 105 -50 0 -50 0 0 260 0 260 -225 0 -225 0 0 -92z m348 -205 l-3
-208 -154 -3 c-144 -2 -153 -1 -146 15 39 91 55 183 55 316 l0 87 125 0 125 0
-2 -207z"/>
<path d="M11970 1663 c-1 -125 -18 -335 -31 -373 -15 -45 -44 -70 -81 -70 -29
0 -29 -1 -26 -47 l3 -48 42 -3 c64 -5 109 21 138 78 30 60 43 139 52 313 l6
137 124 0 123 0 0 -260 0 -260 55 0 55 0 0 305 0 305 -230 0 -230 0 0 -77z"/>
<path d="M7874 653 c4 -10 56 -111 117 -226 60 -114 109 -211 109 -215 -1 -13
-35 -49 -59 -61 -13 -8 -37 -10 -60 -6 -38 6 -38 6 -49 -37 -14 -56 -6 -63 71
-63 84 1 137 29 181 98 33 50 286 513 286 522 0 3 -28 5 -63 5 l-63 0 -54
-111 c-30 -61 -71 -141 -92 -177 l-36 -66 -89 177 -88 177 -58 0 c-52 0 -58
-2 -53 -17z"/>
<path d="M8550 360 l0 -310 55 0 55 0 0 130 0 130 160 0 160 0 0 -130 0 -130
60 0 60 0 0 310 0 310 -60 0 -60 0 0 -130 0 -130 -160 0 -160 0 0 130 0 130
-55 0 -55 0 0 -310z"/>
<path d="M9270 360 l0 -310 58 1 57 0 160 212 160 211 3 -212 2 -212 60 0 60
0 0 310 0 311 -57 -3 -56 -3 -161 -211 -161 -210 -3 213 -2 213 -60 0 -60 0 0
-310z"/>
<path d="M9990 361 l0 -313 198 4 c168 3 203 6 235 22 52 26 80 69 85 131 6
70 -18 119 -69 146 l-39 19 35 31 c80 71 64 193 -31 240 -43 20 -66 23 -231
27 l-183 5 0 -312z m354 180 c44 -42 30 -102 -29 -127 -21 -9 -69 -14 -125
-14 l-90 0 0 86 0 86 109 -4 c100 -3 112 -5 135 -27z m13 -241 c56 -36 45
-127 -17 -149 -18 -6 -80 -11 -136 -11 l-104 0 0 91 0 91 118 -4 c79 -2 124
-8 139 -18z"/>
<path d="M10640 360 l0 -310 230 0 230 0 0 50 0 50 -175 0 -175 0 0 80 0 80
150 0 150 0 0 50 0 50 -150 0 -151 0 3 78 3 77 168 3 167 2 0 50 0 50 -225 0
-225 0 0 -310z"/>
<path d="M11230 360 l0 -310 55 0 54 0 3 87 3 88 125 5 c114 5 129 8 172 33
132 77 139 271 13 360 -51 35 -124 47 -297 47 l-128 0 0 -310z m311 200 c50
-14 80 -50 86 -102 9 -94 -42 -128 -189 -128 l-98 0 0 113 c0 63 3 117 7 120
10 11 154 8 194 -3z"/>
<path d="M12022 651 c-78 -27 -138 -83 -178 -166 -34 -72 -34 -179 2 -255 40
-87 71 -119 143 -154 59 -28 75 -31 156 -30 80 0 97 4 150 31 33 17 68 40 78
51 18 19 17 21 -20 51 -40 33 -57 38 -69 20 -14 -23 -90 -49 -147 -49 -70 0
-112 17 -154 61 -42 45 -53 77 -53 154 0 54 4 69 33 111 68 101 203 122 312
48 l38 -26 36 37 36 36 -38 34 c-22 19 -60 41 -85 49 -61 21 -174 20 -240 -3z"/>
<path d="M12490 360 l0 -310 58 0 58 0 160 210 c87 115 162 210 167 210 4 0 7
-94 7 -210 l0 -210 55 0 55 0 0 310 0 310 -54 0 -53 0 -164 -216 -164 -217 -3
217 -2 216 -60 0 -60 0 0 -310z"/>
<path d="M13130 620 l0 -50 105 0 105 0 0 -260 0 -260 55 0 55 0 2 257 3 258
98 3 97 3 0 49 0 50 -260 0 -260 0 0 -50z"/>
<path d="M13750 360 l0 -310 235 0 235 0 0 50 0 50 -175 0 -175 0 0 80 0 80
145 0 145 0 0 50 0 50 -145 0 -145 0 0 80 0 80 165 0 165 0 0 50 0 50 -225 0
-225 0 0 -310z"/>
<path d="M14270 620 l0 -50 100 0 100 0 0 -260 0 -260 60 0 60 0 0 260 0 260
95 0 95 0 0 50 0 50 -255 0 -255 0 0 -50z"/>
</g>
</svg>
